<?xml version="1.0" standalone="no"?>
<!DOCTYPE svg PUBLIC "-//W3C//DTD SVG 20010904//EN"
 "http://www.w3.org/TR/2001/REC-SVG-20010904/DTD/svg10.dtd">
<svg version="1.0" xmlns="http://www.w3.org/2000/svg"
 width="1000.000000pt" height="1000.000000pt" viewBox="0 0 1000.000000 1000.000000"
 preserveAspectRatio="xMidYMid meet">
<metadata>
Created by potrace 1.11, written by Peter Selinger 2001-2013
</metadata>
<g transform="translate(0.000000,1000.000000) scale(0.100000,-0.100000)"
fill="#000000" stroke="none">
<path d="M0 5000 l0 -5000 5000 0 5000 0 0 5000 0 5000 -5000 0 -5000 0 0
-5000z m1498 -7 l2 -4553 -220 0 -220 0 0 4543 c0 3561 3 4546 12 4555 9 9 66
12 218 10 l205 -3 3 -4552z m726 4541 c3 -9 6 -906 6 -1995 l0 -1979 873 2
872 3 5 1990 5 1990 214 3 c165 2 216 -1 223 -10 4 -7 8 -1002 8 -2210 l0
-2198 -1315 0 -1315 0 0 2210 0 2210 209 0 c181 0 210 -2 215 -16z m4696 6
c41 -6 111 -14 155 -20 379 -44 713 -165 987 -357 110 -76 323 -285 407 -398
108 -145 203 -315 257 -463 13 -37 28 -76 33 -87 10 -23 45 -135 57 -180 4
-16 9 -34 10 -40 17 -50 60 -271 74 -380 37 -292 35 -251 35 -620 -1 -165 -3
-331 -7 -370 -15 -173 -29 -293 -38 -325 -5 -19 -12 -57 -15 -85 -4 -27 -10
-63 -15 -80 -5 -16 -17 -64 -26 -105 -50 -227 -161 -502 -278 -690 -95 -154
-262 -345 -401 -460 -44 -36 -229 -158 -262 -172 -15 -7 -30 -15 -33 -18 -8
-8 -80 -41 -185 -85 -70 -30 -247 -86 -320 -101 -65 -15 -134 -27 -290 -55
-34 -6 -291 -12 -595 -15 -294 -3 -545 -7 -557 -9 l-23 -5 0 -1985 0 -1985
-217 2 -218 3 -3 2203 -2 2202 647 2 c357 1 666 3 688 4 68 3 300 26 307 31 4
2 40 10 80 18 108 21 201 44 220 55 10 6 23 10 30 10 7 0 25 6 40 14 14 8 43
19 64 26 103 34 283 145 383 237 20 18 39 33 43 33 13 0 162 186 213 265 212
332 309 745 322 1365 5 261 -10 536 -38 675 -5 28 -16 86 -24 130 -21 122 -70
311 -85 330 -4 6 -10 23 -14 40 -14 57 -114 254 -180 353 -61 91 -183 228
-263 295 -104 86 -263 176 -418 235 -160 61 -244 81 -475 112 -135 18 -206 20
-987 20 l-843 0 0 -4335 0 -4335 -225 0 -225 0 0 4548 c0 2502 3 4552 7 4555
11 11 2119 8 2203 -3z m-15 -730 c44 -5 121 -16 170 -25 50 -9 97 -17 105 -19
65 -10 215 -63 308 -108 439 -212 673 -661 712 -1366 5 -97 12 -196 16 -220 6
-45 -11 -375 -27 -527 -20 -190 -75 -444 -115 -532 -7 -17 -14 -35 -14 -40 0
-6 -6 -23 -14 -39 -8 -16 -24 -51 -36 -77 -64 -144 -200 -317 -325 -413 -64
-49 -145 -98 -220 -133 -38 -18 -77 -36 -85 -41 -9 -4 -31 -11 -50 -15 -19 -4
-39 -11 -45 -15 -10 -8 -122 -34 -215 -50 -190 -34 -229 -35 -920 -35 l-695 0
-3 1833 -2 1832 687 -1 c379 0 724 -4 768 -9z m-2477 -6172 l2 -2198 -225 0
-225 0 -2 1978 -3 1977 -872 3 -873 2 0 -1980 0 -1980 -215 0 -215 0 0 2200 0
2200 1313 -2 1312 -3 3 -2197z"/>
<path d="M5895 8379 c-3 -8 -4 -637 -3 -1399 l3 -1385 395 -3 c583 -4 810 19
953 96 66 35 170 115 237 183 78 78 145 200 184 334 15 50 31 104 37 122 13
41 37 217 50 368 13 140 6 653 -10 735 -5 30 -15 91 -21 135 -6 44 -15 94 -20
110 -80 268 -133 371 -248 477 -90 82 -235 158 -362 188 -135 33 -237 40 -712
46 -404 6 -478 5 -483 -7z"/>
</g>
</svg>
